HIERARCHY
ROOT Hips
{
	OFFSET 0.000000 0.000000 0.000000 
	CHANNELS 6 Xposition Yposition Zposition Yrotation Zrotation Xrotation 
	JOINT Lumbar
	{
		OFFSET 0.000000 0.000000 0.000000 
		CHANNELS 3 Zrotation Xrotation Yrotation
		JOINT Neck
		{
			OFFSET 0.000000 0.445665 0.000000 
			CHANNELS 3 Zrotation Xrotation Yrotation
			End Site
			{
				OFFSET 0.000000 0.227535 0.000000 
			}
		}
		JOINT RightShoulder
		{
			OFFSET 0.019635 0.377685 0.194865 
			CHANNELS 3 Zrotation Xrotation Yrotation
			JOINT RightElbow
			{
				OFFSET 0.000000 -0.243375 0.000000 
				CHANNELS 2 Zrotation Yrotation
				JOINT RightWrist
				{
					OFFSET 0.000000 -0.264825 0.000000 
					CHANNELS 2 Zrotation Xrotation
					End Site
					{
						OFFSET 0.006600 -0.176220 0.000990 
					}
				}
			}
		}
		JOINT LeftShoulder
		{
			OFFSET 0.019635 0.377685 -0.194865 
			CHANNELS 3 Zrotation Xrotation Yrotation
			JOINT LeftElbow
			{
				OFFSET 0.000000 -0.243375 0.000000 
				CHANNELS 2 Zrotation Yrotation
				JOINT LeftWrist
				{
					OFFSET 0.000000 -0.264825 0.000000 
					CHANNELS 2 Zrotation Xrotation
					End Site
					{
						OFFSET 0.006600 -0.176220 -0.000990 
					}
				}
			}
		}
	}
	JOINT RightHip
	{
		OFFSET 0.052140 -0.069960 0.075570 
		CHANNELS 3 Zrotation Xrotation Yrotation
		JOINT RightKnee
		{
			OFFSET 0.000000 -0.402270 0.000000 
			CHANNELS 1 Zrotation
			JOINT RightAnkle
			{
				OFFSET 0.000000 -0.404085 0.000000 
				CHANNELS 3 Zrotation Xrotation Yrotation
				End Site
				{
					OFFSET 0.204105 -0.089430 0.008415 
				}
			}
		}
	}
	JOINT LeftHip
	{
		OFFSET 0.052140 -0.069960 -0.075570 
		CHANNELS 3 Zrotation Xrotation Yrotation
		JOINT LeftKnee
		{
			OFFSET 0.000000 -0.402270 0.000000 
			CHANNELS 1 Zrotation
			JOINT LeftAnkle
			{
				OFFSET 0.000000 -0.404085 0.000000 
				CHANNELS 3 Zrotation Xrotation Yrotation
				End Site
				{
					OFFSET 0.204105 -0.089430 -0.008415 
				}
			}
		}
	}
}
MOTION
Frames: 24
Frame Time: 0.02
0.03336 -0.94099 0.67459 -269.27262 6.16103 -1.74271 -17.35603 4.65701 -1.74714 -18.14622 5.03493 -2.11994 37.43896 8.29865 23.56553 35.19134 104.93339 -19.58708 -8.1794 33.91945 -2.64788 -19.25369 34.93788 -104.89558 -15.90212 9.30144 126.68097 -32.08564 -33.80056 -119.88618 22.23394 15.09428 2.45843 126.68097 32.08563 27.34267 -122.8959 22.28656 -33.114 -13.00428
0.03333 -0.94101 0.67459 -269.28244 6.31931 -1.74036 -17.2695 4.58454 -1.53287 -18.50411 5.20058 -2.11994 36.15601 7.75605 22.40688 36.36518 105.0219 -19.4683 -7.92344 32.71792 -2.73262 -17.89444 35.69612 -103.32635 -15.76124 9.02896 126.68097 -32.08564 -33.49319 -119.95306 21.76556 14.42982 3.41378 126.68097 32.08563 27.09309 -122.91076 22.28586 -33.11188 -13.00313
0.03332 -0.941 0.6746 -269.29627 6.47719 -1.73119 -17.1145 4.49967 -1.34259 -18.91183 5.3125 -2.11994 34.85185 7.26102 21.32567 37.27741 104.63482 -19.13315 -7.51622 31.57499 -2.85714 -16.71014 36.1339 -100.3301 -15.17223 8.56846 126.68097 -32.08563 -33.1622 -120.04095 21.14668 13.44623 4.61715 126.68096 32.08563 26.82757 -122.93141 22.2836 -33.10914 -13.00164
0.03332 -0.94101 0.67463 -269.307 6.63825 -1.72571 -16.99012 4.42229 -1.1503 -19.27801 5.43833 -2.11994 33.57684 6.7516 20.24922 38.2624 104.47071 -18.9081 -7.18024 30.4233 -2.95827 -15.48735 36.67843 -98.06667 -14.79631 8.179 126.68097 -32.08564 -32.84997 -120.11329 20.5834 12.63426 5.6553 126.68096 32.08563 26.56828 -122.94969 22.28272 -33.1068 -13.00038
0.03328 -0.94098 0.67458 -269.32266 6.78792 -1.71781 -16.86995 4.33679 -0.91842 -19.72679 5.60974 -2.11994 32.21324 6.20882 18.99242 39.45024 104.29703 -18.63659 -6.82761 29.1858 -3.08512 -14.07302 37.39294 -95.487 -14.39363 7.84605 126.68097 -32.08563 -32.50236 -120.21121 20.0769 11.71513 6.912 126.68096 32.08563 26.31004 -122.96745 22.28287 -33.10388 -12.99878
0.0333 -0.94104 0.67469 -269.32962 6.96151 -1.71335 -16.72407 4.26536 -0.77542 -20.01406 5.67319 -2.11994 31.03188 5.7487 18.13732 40.14948 104.02406 -18.41395 -6.47951 28.1463 -3.16726 -13.10733 37.67545 -93.2127 -13.93997 7.35847 126.68097 -32.08563 -32.22226 -120.26165 19.41261 10.94081 7.77684 126.68096 32.08562 26.04674 -122.9874 22.27561 -33.10203 -12.9978
0.03351 -0.94135 0.67519 -269.30604 7.19249 -1.71946 -16.52264 4.2362 -0.87315 -19.84696 5.44891 -2.11994 30.35509 5.49602 18.33332 39.57275 103.58137 -18.32051 -6.13669 27.6229 -3.1075 -13.32528 36.8375 -92.12018 -13.39542 6.41315 126.68097 -32.08564 -32.14816 -120.16474 18.38113 10.65313 7.45734 126.68096 32.08563 25.77649 -123.01289 22.28675 -33.10351 -12.99874
0.03379 -0.94177 0.67584 -269.27457 7.44941 -1.72928 -16.29785 4.22168 -1.05966 -19.51542 5.11799 -2.11994 29.86435 5.32715 18.93902 38.51008 103.056 -18.29312 -5.81092 27.30137 -3.00227 -13.99366 35.57559 -91.38017 -12.82266 5.3315 126.68095 -32.08561 -32.14029 -120.02133 17.1891 10.52054 6.74178 126.68096 32.08563 25.50107 -123.0403 22.28092 -33.10603 -13.00029
0.03402 -0.94214 0.67642 -269.25031 7.69921 -1.73785 -16.08401 4.20017 -1.20499 -19.25519 4.8377 -2.11994 29.29132 5.12585 19.38441 37.6635 102.57146 -18.27311 -5.50828 26.89893 -2.92313 -14.46616 34.51141 -90.48022 -12.30051 4.36366 126.68098 -32.08566 -32.0939 -119.90615 16.05117 10.30985 6.23574 126.68096 32.08563 25.22716 -123.06598 22.26063 -33.10795 -13.0015
0.03429 -0.94249 0.677 -269.2109 7.92715 -1.74462 -15.86549 4.17935 -1.35436 -19.00753 4.54706 -2.11994 28.70635 4.90115 19.72451 36.8301 102.05071 -18.08911 -5.07526 26.45126 -2.82308 -14.90637 33.4168 -89.53112 -11.60721 3.17506 126.68097 -32.08565 -32.08367 -119.76124 14.99199 10.11783 5.61702 126.68097 32.08563 24.95838 -123.09487 22.34366 -33.11046 -13.00299
0.03451 -0.94293 0.67763 -269.20108 8.20952 -1.75575 -15.65324 4.1611 -1.51644 -18.69857 4.25256 -2.11994 28.19266 4.74588 20.37847 35.85457 101.59971 -18.26357 -4.91321 26.14676 -2.75456 -15.51963 32.28655 -88.7853 -11.26483 2.41048 126.6809 -32.08551 -32.01229 -119.66758 13.72715 9.93096 5.13155 126.68097 32.08563 24.67514 -123.11822 22.19525 -33.11188 -13.00401
0.03461 -0.94355 0.6784 -269.27553 8.61307 -1.78116 -15.45464 4.1431 -1.6889 -18.22239 3.98052 -2.11994 27.81515 4.75026 21.8136 34.6292 101.29146 -19.42383 -5.55354 26.17351 -2.79022 -16.48933 31.18388 -88.53142 -11.9394 2.90181 126.68114 -32.08593 -31.77163 -119.72086 11.98404 9.69162 5.14464 126.68097 32.08563 24.37682 -123.11915 21.51482 -33.11034 -13.00368
0.03467 -0.94426 0.67923 -269.37999 9.07528 -1.8102 -15.26566 4.1278 -1.87153 -17.69816 3.70734 -2.11994 27.50654 4.82379 23.54682 33.27467 101.06866 -20.93958 -6.45633 26.3398 -2.85818 -17.61717 30.05746 -88.47438 -12.96238 3.81613 126.68076 -32.08528 -31.46408 -119.82811 10.03305 9.4564 5.29746 126.68097 32.08563 24.05958 -123.11566 20.58189 -33.10708 -13.00266
0.03474 -0.94496 0.68003 -269.47015 9.52487 -1.83566 -15.07825 4.11353 -2.05132 -17.2193 3.43018 -2.11994 27.1756 4.87272 25.13421 31.96471 100.85883 -22.28795 -7.20088 26.45163 -2.9068 -18.6813 28.92884 -88.32258 -13.80147 4.50346 126.68092 -32.08553 -31.1772 -119.91473 8.14216 9.2431 5.3636 126.68097 32.08563 23.73592 -123.11851 19.69833 -33.10507 -13.00212
0.03484 -0.94555 0.68082 -269.56239 9.91389 -1.86973 -14.86321 4.0904 -2.22666 -16.63082 3.16775 -2.11994 26.81054 4.89481 26.78188 30.6963 100.43946 -23.67041 -8.10847 26.53293 -2.97216 -19.73389 27.83985 -88.20245 -14.7482 5.33149 126.68187 -32.08723 -30.93458 -119.98421 6.38162 8.94547 5.51599 126.68097 32.08563 23.47644 -123.1031 19.09419 -33.10331 -13.00167
0.03486 -0.9464 0.68166 -269.65805 10.44542 -1.88628 -14.71044 4.08595 -2.41257 -16.26708 2.87639 -2.11994 26.53386 4.98937 28.3667 29.31829 100.46249 -25.05629 -8.74106 26.70807 -3.01264 -20.8333 26.66852 -88.06132 -15.55259 5.97018 126.67866 -32.08164 -30.58188 -120.10167 4.3137 8.80883 5.52448 126.68097 32.08563 23.07765 -123.12469 17.84334 -33.09786 -12.9999
0.03466 -0.94791 0.6826 -269.75139 11.33189 -1.85698 -14.7091 4.13413 -2.6238 -16.48748 2.50134 -2.11994 26.45417 5.25548 29.72545 27.66225 101.82103 -26.44357 -8.52877 27.10961 -2.96238 -22.09308 25.27639 -87.7899 -15.88887 5.97086 126.68398 -32.09075 -29.9518 -120.34833 1.35184 9.23617 5.1264 126.68097 32.08563 22.3099 -123.24946 14.91423 -33.10588 -13.00265
0.03437 -0.94969 0.68361 -269.84794 12.36365 -1.80918 -14.77334 4.20052 -2.84478 -16.94508 2.09905 -2.11994 26.46527 5.59355 31.0041 25.905 103.59777 -27.8074 -8.03446 27.59953 -2.88911 -23.37649 23.80476 -87.49199 -16.06699 5.76931 126.68115 -32.08625 -29.2115 -120.63972 -1.89297 9.80477 4.57718 126.68097 32.08563 21.40113 -123.41177 11.33733 -33.10561 -13.00246
0.03411 -0.95137 0.68461 -269.94598 13.34526 -1.76771 -14.81996 4.25747 -3.06216 -17.3271 1.71173 -2.11994 26.45429 5.90634 32.30485 24.20006 105.09432 -29.12935 -7.68333 28.04697 -2.83558 -24.60447 22.37053 -87.2223 -16.31256 5.66868 126.6694 -32.06517 -28.51396 -120.90451 -4.94502 10.2256 4.08124 126.68097 32.08563 20.54901 -123.55676 8.02353 -33.09429 -12.99855
0.03387 -0.95295 0.68551 -270.03281 14.26391 -1.73552 -14.81661 4.31982 -3.27783 -17.57323 1.31109 -2.11994 26.36688 6.19169 33.67946 22.46012 106.97179 -30.68377 -7.27849 28.50902 -2.74293 -26.0381 20.92768 -86.89738 -16.59384 5.54452 126.71209 -32.1396 -27.843 -121.19801 -8.27727 10.98873 3.6501 126.68097 32.08564 19.72535 -123.70214 4.82153 -33.14672 -13.01654
0.03357 -0.9548 0.68663 -270.14315 15.3449 -1.6791 -14.93135 4.37471 -3.49749 -18.15699 0.93462 -2.11994 26.45677 6.54856 34.87374 20.77521 108.15726 -31.74602 -6.91446 28.96 -2.72716 -27.03289 19.48699 -86.67104 -16.75254 5.416 126.638 -32.01258 -27.09397 -121.44117 -11.08796 11.08591 3.05244 126.68097 32.08563 18.812 -123.8564 1.25055 -33.06287 -12.9875
0.03309 -0.95739 0.68837 -270.31915 16.85883 -1.56434 -15.36767 4.409 -3.74076 -19.63485 0.60701 -2.11994 27.03403 7.09998 35.61593 19.23249 107.3019 -31.43239 -6.7365 29.35349 -2.91739 -26.93567 18.05168 -86.78881 -16.66556 5.32164 126.25745 -31.32879 -26.13509 -121.53995 -12.40823 9.19255 1.97941 126.68096 32.08562 17.66189 -124.02067 -3.30002 -32.62022 -12.8363
0.03255 -0.96023 0.69033 -270.5181 18.52605 -1.4252 -15.91778 4.43442 -3.985 -21.43992 0.30912 -2.11994 27.78168 7.71744 36.17178 17.75705 105.74071 -30.62601 -6.60713 29.73138 -3.18723 -26.37718 16.62704 -86.99482 -16.45138 5.22825 125.75825 -30.44509 -25.1063 -121.5865 -13.18942 6.64582 0.75314 126.68096 32.0856 16.43138 -124.19419 -8.17343 -32.03948 -12.63719
0.03206 -0.96293 0.69218 -270.70561 20.11082 -1.29442 -16.40887 4.46083 -4.21874 -23.08365 0.01394 -2.11994 28.43885 8.29514 36.79566 16.27259 104.52008 -30.05906 -6.45142 30.12124 -3.42911 -25.93973 15.20842 -87.11478 -16.255 5.13455 125.30266 -29.65334 -24.12306 -121.65136 -14.20366 4.47512 -0.36912 126.68095 32.08558 15.25261 -124.36623 -12.82292 -31.50974 -12.4546
